<?xml version="1.0" encoding="UTF-8" standalone="no"?>
<svg xmlns="http://www.w3.org/2000/svg" xmlns:xlink="http://www.w3.org/1999/xlink" width="1050" height="1304">
  <path fill="#e6e6e6" d="M494.29275 956.79434c-7.9347 53.52346 33.63839 90.89276 25.34684 143.06156l5.57451 17.7697s34.4729-6.0485 39.35673-7.0253c4.88383-.9768 46.88478-17.5818 50.79184-18.5586 3.90707-.9767 19.53533-24.4191 19.53533-24.4191-23.20827-29.0373-26.11367-56.4044-30.27975-91.81603 0 0-1.95354-36.14034-1.95354-42.00094 1.19344-52.37799-11.0785-55.78287-29.47198-12.76648-9.74012 22.68786 1.16801 60.55983 4.07606 83.09365-22.7641-13.83649-19.72261-14.85373-25.39592-40.04742 1.7655-33.2718-51.7653-26.19103-57.58012-7.29104z"/>
  <path fill="#b3b3b3" d="M563.59375 230.6875c-304.52741 1.23251-423.29957 153.50214-315.625 391.625-12.55378 3.76614-24.90047-1.43134-31.09375 13.8125-7.39051 28.02608-.69493 55.83929 22.09375 86.3125 5.26706 13.88587 6.96382 28.24783 18.65625 40.0625 18.41808 13.56843 25.10099 14.08451 39.375 11.75l13.8125 73.90625c5.73434 37.03157 5.76629 73.06624-6.21875 113.28125-25.27183 36.2673-35.32903 70.9965-68.26368 79.1956-3.79027.9436-6.69604 5.7233-11.15036 5.926 8.67903 40.3763-56.41173 30.8841-61.49221 27.4409l-32.46875 17.2812c-28.46832 16.6495-89.741917 72.1931-140.59375 62.5626l-3.0625 154.3124 1002.875 5.5 1.375-58-12.4375-41.4374c-37.15398-37.1545-67.62248-55.9433-121.5625-74.5938-103.66414-29.1265-155.146-.3485-226.53125-106.375-19.81669-49.54154-26.14292-108.42637-22.09375-167.125 11.83789-15.37666 36.89809-57.61451 40.0625-87.03125 25.4632 15.81539 35.84999 5.90792 40.03125-27.625 15.51983-22.60922 44.05981-124.12096-6.45035-110.1973l.26285-61.8027c1.71263-19.92861 9.23862-31.24514 15.875-46.25 120.98976-143.69245 116.48282-284.0145-135.375-302.53125z"/>
  <path fill="#ececec" d="M431.56305 564.0751c-19.20658 24.00631-63.45768 13.43153-89.6949 8.2678 33.44643-31.32491 67.16162-25.54393 89.6949-8.2678z"/>
  <path fill="#1a1a1a" d="M402.14091 578.515c7.0064-7.43311 11.10459-20.56911-2.06044-27.90932-6.5838-1.31915-15.44173-1.7565-28.39745 2.94545-5.99092 6.79847-4.23379 17.92593 2.57252 24.5682 8.67213 1.17566 16.76695 1.50768 27.88537.39567z"/>
  <path fill="#ccc" d="M495.88909 938.81802c-18.31371 3.88909-47.2028-9.36396-47.2028-9.36396 26.65566 57.18202-4.12729 140.43334 40.65686 178.02084L505 1122s33 3 37 2 30-5 36-8 30-13 30-13l32-34c-1.97205-22.9013-27.33872-38.0635-29-57-18.65282-80.66995-3.34429-67.49933-6-142l-19 26c-22.76091 40.62201-10.57442 73.44318-8.70711 112.6568-45.9885-43.45716-12.67029-89.68237-81.4038-69.83878zm-100.2988 127.82778c9.26491 28.5345 23.2748 47.7634 23.2748 47.7634s-1.78594 13.7729 14.81908 13.7729 23.18505-4.1931 24.16182-8.1002c5.41392-31.5008-18.30009-52.4619-31.97595-81.7623-15.31057-35.5828-41.97189-3.3096-30.27975 28.3262z"/>
  <path fill="none" d="M545.3125 232.03125c-38.0744.42145-83.94484 4.69041-117.34375 11.5625C324.50197 264.88287 253.80761 312.92671 225.3125 381.375c-10.11058 24.28671-13.87316 42.30663-15.125 72.34375-1.86904 44.84695 7.26589 91.05109 28.375 143.53125 5.39306 13.40792 9.54335 24.64413 9.21875 24.96875-.32462.3246-5.19355 1.14332-10.84375 1.8125-14.32615 1.69672-19.21774 6.46642-21.5625 21.09375-3.26746 20.38329 2.38493 41.89359 17.3125 65.96875 4.16123 6.71124 9.68189 18.3539 12.25 25.875 5.96218 17.46105 16.51941 28.70901 30.96875 33 5.53412 1.64355 12.65166 2.47591 15.8125 1.84375 3.38522-.67704 5.75-.3105 5.75.875 0 1.10695 3.03542 18.13337 6.75 37.84375 12.08287 64.11403 12.99081 90.28241 4.625 131.375-3.17443 15.59276-5.54999 21.82102-12.25 32.21875-4.57012 7.09236-12.97724 20.20657-18.6875 29.125-24.02243 37.5188-46.92456 46.2955-90.25 34.625-5.09856-1.3735-5.63537-.7223-14.65625 17.4375l-9.34375 18.8125-21.625 11.375c-40.28588 21.1595-64.24525 26.5095-112.6875 25.1562-30.10173779-.8409-30.7843145-.7864-30.90625 3.1876-.068549 2.234-2.5036558 46.0391-5.40625 97.3437-2.9025943 51.3047-5.26643 93.4392-5.25 93.625.01642.1858 162.66559 1.3303 361.4375 2.5625 198.77192 1.2321 423.48229 2.3999 499.34375 2.5938l137.9375.375 1.25-13.1876c2.56064-27.1128 1.49497-41.5924-4.5625-62.0312-5.76738-19.4599-5.84843-19.5931-20.6875-33.5938-25.9458-24.48-53.08504-40.9693-91.6875-55.75-21.19659-8.1159-42.99785-13.1838-90.53125-21-42.59949-7.0047-55.47129-10.1534-72.15625-17.7187-25.04491-11.3559-51.38469-34.5509-71.125-62.625-10.0334-14.2692-13.39466-22.1284-19.25-45.03125-8.4341-32.9893-10.11319-46.95069-11-91.5l-.875-43.96875 15.96875-18.53125C642.79395 821.03241 647.1002 811.90919 647.125 792c.0143-11.47428.63775-15.04055 2.46875-14.28125 18.32693 7.59991 25.69623 6.36279 30.75-5.15625 1.98582-4.52629 4.23136-11.76473 5-16.0625.76861-4.29777 3.36401-11.75876 5.78125-16.59375 11.51125-23.0248 18.58802-60.46843 14.78125-78.21875-2.2106-10.30766-8.28517-19.46875-12.90625-19.46875-1.44048 0-4.26117-11.94852-7.625-32.25-4.51666-27.25906-5.00775-33.7832-3.21875-42.125 3.61207-16.8425 13.02112-36.01047 25.15625-51.28125 32.86501-41.35716 55.91269-86.28424 63.0625-122.9375 3.38188-17.33715 2.48794-43.87353-1.96875-58.25-16.65202-53.71619-78.93827-89.23459-177.90625-101.4375-12.1824-1.50211-27.88096-2.09782-45.1875-1.90625z"/>
  <path fill="none" d="M239.30771 601.70514c37.7162-267.73846 435.01773-292.95696 450.63453-48.08838"/>
  <path fill="none" d="M674.77594 487.56936c-16.59207-7.25923-16.9228-14.8244-28.31779-27.97246l-17.26695 8.63347 7.59745-18.99364c-16.80373-.41312-12.60286-5.51818-18.64831-14.84957-20.26074.83213-60.69806 13.45558-16.57626-6.21611l-23.82839.69068c-22.38726 8.07133-22.88136 9.68657-43.85805 8.28814l27.62712-10.36017c-28.30085 2.10903-56.28124 7.96011-84.95339 5.52542 38.05966-6.81557 60.44733-15.67395 78.04661-36.60593-36.99033.0163-77.21641-10.21306-84.95339 31.77118 6.88057 31.99428 26.63106 52.14176 64.92372 45.58475-43.80198 23.2071-82.94723-.72479-86.33474-37.98729-3.32254-13.28158-.58201-26.2361 3.45339-37.29661-23.86696 9.1596-27.9885 27.32987-34.87923 48.00212-3.08266-16.73985-3.7072-22.93301.34533-38.33263-42.58854 12.07863-59.8551 10.34848-45.2394 57.67161 7.26536 5.67109 13.37043 12.28315 21.75635 10.70551-17.32295 8.42504-30.88437 9.19136-39.36864-7.59746-2.29148-9.91765-4.19598-31.06839-8.28814-29.69915-19.29677 6.56545-19.89068 12.12606-24.17373 19.68433-10.95212 9.87168-17.82907 33.69065 0 38.33262 14.60145 10.32118 31.72364 5.78294 35.22458 3.45339-17.0155 20.20088-51.03326 8.78615-64.92373-4.83474-9.77814-2.71394-14.61391 29.42206-15.8856 37.2966 3.24985 20.69173-10.64282 33.50946-6.90677 54.56356 1.35711 11.75846 6.3783 63.32084.69067 60.08899-8.0783-23.05008-16.98424-26.38611-31.42585-48.34746"/>
  <path fill="#1a1a1a" d="M624.39776 511.59847c6.20587 3.54935 11.10895 9.53586 14.4073 14.89568-26.1092-12.42862-55.62857-10.90159-81.55997-8.30252-10.82013.9896-17.746.23641-19.53533-6.34898 1.153-21.05519 69.5248-10.77453 86.688-.24418zm-260.41047-.15144c-25.58433 4.68367-51.8831 23.68884-63.54237 49.38348.74362-38.36128 29.76705-55.10504 63.88771-62.34596 21.34877-4.06533 37.90664-11.18206 60.83891-5.63674 33.44175 23.22568-36.53048 14.19433-61.18425 18.59922z"/>
  <path fill="none" d="M218.25441 1042.2365c50.131 78.3674 405.82884 105.76 423.839 6.2485"/>
  <path fill="#333" d="M312.16058 927.01735c29.72282 133.47205 50.5406 121.10815 90.26707 174.79205-66.75808-34.2057-88.76994-69.4422-107.38502-126.00283"/>
  <path fill="#4d4d4d" d="M464.94069 1093.0185c-18.2447-25.2503-28.41349-49.7836-40.04742-78.1413-31.93011-52.38475 11.78456-70.10098-49.91655-115.34008-10.58012-15.99372-17.90519-33.90974-25.29444-53.64044 136.45797 66.666 84.27692 142.42388 115.25841 247.12182z"/>
  <path fill="#666" d="M441.02429 909.67256c56.80902 13.53911 110.62816-7.25155 150.896-34.4729l-18.55856 30.27975c-15.35681 25.73559-4.39334 68.50844 0 92.79279-9.30731-7.20821-16.91989-31.36373-24.41915-56.65244-10.61588-25.21418-24.63658-11.98678-52.74538-9.76766-29.47638-.0824-41.07633 2.00817-55.17291-22.17954z"/>
  <path fill="#333" d="m317.449 858.59464 28.32622 91.81601 43.3823 125.07525c-50.57811-67.4316-72.80802-142.71717-71.70852-216.89126z"/>
  <path fill="#ccc" d="M400.47412 781.43011c-5.85816-16.242-24.66615-51.56921-20.57134-64.34807 3.90706-10.74442 24.93208-30.73342 24.93208-30.73342 12.70529-17.27507 15.96825-29.78999 16.49669-51.60102 19.64188-24.16247-17.53095-11.61106-26.38285-1.02585-49.61269 65.74244-54.07974 107.23572-24.57658 141.62092 16.78998 12.91033 28.25736 35.60155 30.102 6.08744z"/>
  <path fill="gray" d="M482.51913 711.94149c-15.71152 2.84673-23.01781-2.00738-48.9359 6.85634-17.14231 3.75126-18.51009 9.28599-43.57271 13.29592 7.13741 19.51859 63.60013 17.79496 86.83354 11.919 26.42537-2.70573 56.64729.95267 80.87469-.669L589 735.53125c-25.16181-6.08501-34.54237-17.27003-54.85697-21.02726-11.831-2.7567-40.56631-4.52272-51.6239-2.5625z"/>
  <path fill="#333" d="M246.64507 657.63638c3.70155-36.38938-32.73008-7.0564-18.08179 26.11712 16.06367 31.56552 16.47766 21.61008 19.10502-7.2909zm20.98885 10.48886c.5274 18.24492-6.36053 31.49493 10.74443 40.04741-22.62385 23.37043-22.64779-26.1404-10.74443-40.04741z"/>
  <path fill="#666" d="M687.76187 668.47058c6.23584 10.87227 5.48884 22.42052 6.71886 37.74854 9.74331-7.60701 12.15441-27.07221 7.58729-42.0602-3.73882-13.50769-11.67195-10.16386-14.30615 4.31166z"/>
  <path fill="gray" d="M477.58868 541.72867c1.88036 14.52945-4.55106 51.08585-16.42727 59.58273-32.76703 13.63738-10.20284-17.8968-11.50165-41.44169 2.85134-34.44503-60.57072-29.55932-17.06506-39.19182 5.32132-1.17818 39.07359.58306 44.99398 21.05078z"/>
  <path fill="#1a1a1a" d="M470.80128 639.36872c-13.04171 1.45439-10.90519 12.04401 1.00221 10.75161 15.19393-.93255 14.02174-12.00225-1.00221-10.75161zm37.23714 5.81074c-1.44198 5.16489 13.53272 12.7706 20.33651 5.61502 3.22078-7.82042-15.38736-13.53962-20.33651-5.61502z"/>
  <path fill="#999" d="M492.24367 664.0323c-10.49966 1.64857-25.63776 37.39088 4.36074 25.74126 29.10274 4.61776 6.73571-28.04042-4.36074-25.74126z"/>
  <path fill="#4d4d4d" d="M381.91556 681.79996c-38.66836 54.93447-14.298 72.76404 12.69796 107.44428-29.25897-43.27596-35.92532-65.84341-12.69796-107.44428z"/>
  <path fill="gray" d="M375.00878 799.1304c-13.59313-14.31108-27.05934-26.64245-29.75666-47.40787-19.28632-42.85715 3.68226-70.50181-8.10021-108.25345-6.70812-15.45594-12.40721-21.55887-24.52082-32.70339 0 0-3.57149-5.8606-9.43209-7.81413-7.66723 3.56007-6.34276 47.66294-6.77144 51.2293 36.28938 182.59786 115.54232 213.88667 197.30144 222.952 130.56796-21.99485 80.82682-21.27357 15.30772-20.64617-47.43037-4.82875-110.29469-30.08774-134.02794-57.35629z"/>
  <path d="M661.55677 479.70754s9.48157 32.13511 9.48157 37.01894v14.6515c0 12.69796-.97676 22.46562-.97676 29.30298s1.95353 73.25746 1.95353 73.25746l-.97677 15.62826-3.90706 25.39592s10.74443-17.58179 12.69796-21.48885c1.95353-3.90707 5.8606-16.60503 5.8606-16.60503l3.21638-21.3111"/>
  <path fill="#333" d="M446.22266 616.19949c-3.43766-1.29612-16.91476 14.0541-15.98419 17.85757-2.32657 12.18776 6.36142 34.07729 22.00426 24.30052-13.52248-7.34839-22.97406-17.48192-16.25969-25.90885 6.45165-8.18293 16.57486-11.28935 10.23962-16.24924z"/>
  <path fill="#ececec" d="M540.8322 561.65773c29.66891-14.64101 59.70391-14.52027 83.32137 10.74443-26.11058 11.49166-52.70081 11.25815-83.32137-10.74443z"/>
  <path fill="#666" d="M436.32838 549.65045c-44.32277-21.00288-92.53302-8.10399-113.01878 26.65877 22.8982-8.0565 17.97884-16.74345 47.33844-27.92162 23.62665-6.60141 54.45055 13.83431 65.68034 1.26285zm109.6839 5.16991c37.20174-12.78181 51.17829-4.94564 83.19271 8.73165-12.63127-16.70811-59.36867-34.98754-83.19271-8.73165zm117.21193 127.95637c-10.88832 23.31967-9.49357 44.73979-14.1284 69.00506-.97676 4.88383.20435 24.15144.20435 24.15144 15.80353-21.09376 4.77422-30.93942 9.50406-50.81022 7.96611-16.16423 5.27826-23.32145 4.41999-42.34628z"/>
  <path fill="#ccc" d="M527.45372 599.75161c18.52038 12.51048 22.89364 28.7934 37.11711 42.00094 0 0 17.58179 10.74443 14.6515 1.95353-19.46671-30.20589-8.18554-42.57069 16.60502-41.02417 79.13034 4.55031 73.72969 40.56033 55.27108 101.17908 0 0-7.17253 22.8008-11.3166 35.56818-1.80932 5.5743-5.36585 32.8309-5.36585 36.73796-4.62496 27.51164-34.69193 62.80682-43.39391 65.32628-3.24344 2.17623-80.95836 27.44174-91.67971-16.4743-8.63575-35.89782-.38684-62.94885 20.3144-70.70598 29.74513-11.14603 77.1593-6.44021 72.17462-22.72481-8.1953-7.80506-31.15775-11.36143-46.73662-17.04215-32.19645-19.51163-54.42294-55.30674-1.03602-49.35123 11.57993-13.76973 3.9568-24.154-14.65149-30.27975-44.14254-11.70193-42.54917-40.03506-1.95353-35.16358z"/>
  <path fill="none" d="M649.54949 555.79713c-4.88383 0-23.67939-5.97909-23.67939-5.97909-87.43419-31.09206 27.23551-42.33839 23.67939 5.97909z"/>
  <path fill="#ccc" d="M521.33353 525.47032c.14609-8.8438-1.51849-10.03234 4.55592-20.62363 13.20221-21.38263 27.04068-12.20616 43.25653-13.32406 4.86221-.45908 21.85279 2.84225 19.17338-4.75365-2.67942-7.5959-10.31285-15.70515-20.31271-17.70431-39.83211-3.54173-82.34796 11.02501-79.71938 38.9225 4.40138 21.367 29.7922 38.78633 33.04626 17.48315z"/>
  <path fill="#1a1a1a" d="M594.23912 579.88743c9.37143-6.37793 10.02369-18.14813 2.9188-25.25012-6.02628-2.44047-15.00228-3.42758-25.00315-2.54419-7.85017 5.53365-10.00639 16.35865-4.7935 23.79256 6.36925 2.6591 16.33968 4.45083 26.87785 4.00175zM395.75848 733.5c22.4283 6.52176 28.99007 3.04709 51.29974-2.85087 21.33117-4.04724 42.68857-5.93685 63.45317-5.03394 25.63255 1.49417 42.48394 8.08726 66.89539 8.57549l2.41737.34534c-9.40548 1.99299-18.42311-.68982-32.31209-1.77378-23.9291-5.4732-29.00175-5.18829-45.51851-5.43441-48.87047-.72821-64.8657 11.03806-92.57728 10.74973z"/>
  <path d="M548.94428 231.12122c-66.30009.8147-133.23231 10.2432-195.21875 34.46875-51.16478 20.35009-98.78502 55.3695-123.55882 105.68225-25.88264 51.25342-25.01785 111.73929-11.66942 166.38215 4.86926 20.23425 11.63344 40.01305 19.04074 59.3731 3.95839.91473 2.73087-6.36912 4.0625-8.5625 9.12463-46.18811 30.07028-90.48008 63.38964-124.08703 50.22535-52.25884 123.10003-81.20602 195.67273-79.51498 53.58214.71484 108.81514 19.55876 145.56263 59.85201 25.57284 27.40165 39.05998 63.97069 43.09099 100.81645-1.0228 15.16513 3.43082-2.11721 6.84651-6.56645 9.19944-16.45004 23.12938-29.75465 33.06105-45.85903 24.11826-36.1506 45.02569-77.07927 46.7339-121.32838 1.01333-30.04017-10.94305-60.24342-33.07228-80.63689-34.07625-32.86482-81.60249-46.12226-127.09767-54.1757-22.06537-3.73209-44.44354-6.07698-66.84375-5.84375z"/>
  <path fill="#1a1a1a" d="M490.23968 383.8998c-35.30626.18631-70.26608 8.42589-102.74733 21.89451-33.64085 14.24082-64.13261 35.49922-88.83427 62.38915-33.43469 35.52488-53.97259 78.27452-61.60565 126.2624.0726 4.24619 7.22577 21.79827 9.26151 25.3789 15.71899 15.79734 9.73489-.12794 20.81655 27.4307 2.0611-13.72911 4.96971-34.20755 4.82969-38.39793-13.69461-41.33893 2.5714-79.22904 17.88835-113.50253 11.5819 10.1419 40.11684 10.94531 50.27085 9.24197-34.88542-15.4528-29.7678-34.43342 7.42471-68.01675 1.49868 19.66071 24.28327 41.39486 41.28016 40.06325-51.89291-34.18207-3.13264-60.09247 26.6678-69.36442-.39921 4.42275-11.77943 12.13352 2.75763 42.9218-2.08353-17.71043 8.59098-44.94243 32.21972-52.73887-22.31451 54.54806 68.61394 81.20549 57.29383 74.11804-14.85387-6.42728-32.84445-22.96696-37.04414-38.07441-3.48626-8.51499.92725-17.73061 5.67655-24.67532 8.02996-10.78078 22.03545-14.74151 35.04421-14.24917 14.24317.009 27.44406 3.32694 41.63251 4.42279-10.90767 12.24834-23.76201 18.06198-39.45235 23.00234-9.57499 3.53964-19.93932 5.50484-29.53338 8.25318 19.36822 2.99837 32.12404 1.52833 34.03172 2.08525 22.9964-.94396 22.21662-1.41412 40.7382-5.5866-6.13319 3.25979-11.43207 7.54315-19.37719 9.29597 14.7502.95463 15.64598-1.18666 17.46968-1.04988 11.98801-2.08158 11.70008-4.45595 23.1971-6.69485 6.60807-.4952 13.26203-.52618 19.88514-.33242-5.4044 3.39226-10.86 6.96526-16.85332 9.43863 6.75076.49274 29.9885-3.02032 35.62382-3.61042 2.8442 5.66926 5.18365 14.16515 12.92981 14.40427 3.89888.0228 9.1314 1.81484 5.86428 6.14073-1.57828 4.15765-6.6169 5.05795-11.14969 8.1457 9.25169.62122 15.28125-2.21401 21.09098-2.69651 6.50085 9.64815 11.02459 21.91803 23.96471 24.81969 3.14602-.26699.33952-4.13104-.24521-5.62875-21.15983-41.3799-61.13664-71.69593-105.57852-84.9188-24.39354-7.65419-49.88701-10.81059-75.4387-10.17164z"/>
  <path fill="#1a1a1a" d="M655.432 471.32648c13.87421 36.48261 6.96754 75.95576 14.58211 109.76177 3.21562 2.19596 14.46589 5.67799 15.19343 3.90351-.18253-18.01958 2.68676-30.0509 5.82543-35.45678-2.34805-23.30471-7.90434-47.38515-18.29693-68.50222-2.42116-2.79641-6.52942-3.75537-9.57653-5.87464-.76109-.33856-6.90923-4.55024-7.72751-3.83164z"/>
  <path fill="#1a1a1a" d="M670.27192 528.74467c-1.38883 6.91815-3.0122 13.82727-3.46696 20.92003-.70348 29.46528 6.88437 56.88673 4.00723 88.90031-.52876 12.06327-2.63264 26.24795-4.67243 38.03262 42.19624-54.79172 17.53116-103.09008 5.74524-147.65409-.55827-.0295-.97111-1.05259-1.61308-.19887z"/>
  <path d="M236.44167 1040.5359c-32.50114 14.6994-61.13032 28.8176-99.96459 48.0573-46.016682 19.5944-97.066258 46.2264-143.6943156 51.9836-3.1079094 16.3544 4.6249802 2.5533 3.0933993 19.405-2.4718304 48.7159-5.6051934 97.4552-6.7883897 146.201 9.2945 2.5338 20.5027721.4905 30.4488 1.3868 310.102766 2.8663 620.218726 4.3113 930.332396 5.3804 13.2251-.6372 81.13103 9.9584 93.70353 7.6898 4.0355-19.6351-3.267-51.3912-22.197-79.0142-67.26396-84.9122-178.12263-107.584-279.39579-139.1337-20.74804-12.4493-83.1069-32.3989-98.64139-50.6907-7.96554 13.7998-15.24184 29.4906-27.84233 39.9073-28.99421 11.7884-59.51545 24.0138-90.86322 24.793-1.4188-2.5496-.70699-7.3541-5.34749-6.2756-20.03168 1.5723-40.11851 2.2984-60.19247 3.1378-1.15842 4.4516-1.65012 10.8942-7.68979 12.2418-8.3568 2.5066-18.4073 3.4238-26.78166 1.0164-5.12971-3.0191-5.05169-9.0758-7.15946-13.7444-7.18343-5.0779-17.3454-1.7876-25.44824-4.0798-52.59135-6.4614-99.43722-16.8565-146.24397-43.0071-13.00347-11.0248-13.7997-22.2941-9.32802-25.2547z"/>
  <path d="M422.50004 1111.6401c-7.81891 0-1.77558 10.4099 1.5026 12.8605 7.53772 6.1878 18.77324 2.6526 27.312.5303 4.80384-.8863 9.93379-10.8408 2.69584-11.623-10.40006-1.2374-21.01665-1.7898-31.51044-1.7678z"/>
  <path d="M455.90089 1112.2356c-.98994.076-2.6419-.2668-2.78424 1.0883.21655 1.3845 1.89188.8966 2.71795 1.7125.90346.4721.59023 2.0129 1.85063 1.9998 1.56843-.221 1.05298-2.1073 1.2761-3.2096.38356-1.0917-.85404-1.7748-1.79538-1.5965-.42171 0-.84338 0-1.26506.01zm1.0938 6.2038c-1.03511.5521-1.16102 1.927-1.92797 2.7566-.70529.6694-.6249 2.1075.54138 2.16 1.54089-.347 2.14322-2.1156 2.66822-3.4251.28106-.8358-.35163-1.7266-1.28163-1.4915z"/>
  <path fill="none" d="m415.77879 1116.9703 45.25483 7.071m-46.84582-13.0815 40.65864 20.8597m4.41941-7.955 4.41942-6.7175m-4.59619-2.4748c-82.09853 9.8077-4.34386 5.7288 0 0zm8.3085 9.7227-6.71751-.3536"/>
  <path fill="none" d="M461.03362 1116.0864c-1.4869-.1433-3.00093-.3751-4.24264-.5304m-3.18198-.1767 7.42462 6.1872m-2.47487 5.6568-35.17857 3.3588c-15.96593-40.5219 24.39164 9.7556 0 0"/>
  <path fill="none" d="M428.68348 1123.511c16.50489 27.2538-11.4267-22.8534 0 0z"/>
  <path fill="none" d="M421.43564 1121.3897c30.75001 12.8325-2.60502 2.7497-3.18198 3.3587"/>
  <path fill="none" d="M428.15315 1118.2077c-5.02782.8303-8.20679 6.2173-11.66726 8.8388"/>
  <path fill="none" d="M418.43044 1126.1626c3.93481-2.1988 7.67081-4.4235 12.02081-6.7175.41248 0 .85918.1645 1.23744 0-42.30791.3344 8.69745 17.3957 0 0-1.217 2.5149-4.94975 2.5927-7.42462 3.8891m4.24264 2.4749 30.93592-7.4246m4.24264 12.9047-29.87526-7.6014m.35355-4.4194c.17678-.2357.35356-.4715 0 0zm-1.06066.5303c33.74145-3.6561 26.97712 29.0523 0 0z"/>
  <path fill="none" d="M442.11851 1124.7484c5.65697 5.4528 12.73531 11.1526 17.85445 16.0867l-10.42983-19.799c-4.3015-1.1046-8.55748 2.3771-12.72792 3.5356m-7.42462.1767c-1.81884-1.3687-2.76223-3.0133-3.88909-4.2426m-9.01561-3.182c6.3124 5.1645 12.90012 11.5463 18.03123 16.617"/>
  <path fill="none" d="M429.74415 1116.9703c-3.5628 2.3123-7.96746 11.1061-11.66727 16.2634"/>
  <path fill="none" d="M413.12714 1116.6167c23.66308 7.1177 11.86278 19.7713 0 0z"/>
  <path fill="none" d="M417.72333 1116.2632c4.05902 3.9862 7.79745 10.0983 10.78338 13.9653"/>
  <path fill="none" d="M420.1982 1120.8593c2.7235 4.1053 7.79326 8.0488 10.78338 11.137m6.01041-11.8441c5.86774 2.0468 11.2872 7.0232 15.9099 9.8995m-8.3085-6.5407c7.12045 2.0337 13.3565 8.0784 19.09188 11.844"/>
  <path fill="none" d="M461.03362 1120.329c-8.61858 3.5431-17.69497 7.2554-25.8094 10.7834"/>
  <path fill="none" d="M435.22422 1126.3394c14.80686-2.9085 12.44819 1.3485 30.22882-5.3033l1.76776-.8839m-.35355-2.1213-12.9047-1.7677m14.49569.7071-10.78338-1.9446h-2.12132"/>
  <path fill="none" d="M459.26585 1115.3793c-10.93541 13.7343-11.10361 17.7043-37.1231 11.844m44.19417 0-5.65685-6.8943"/>
  <path id="a" fill="#000" fill-opacity="1" stroke="none" d="M471.99379 1127.2233a18.119612 4.4194174 0 1 1-36.23923 0 18.119612 4.4194174 0 1 1 36.23923 0z"/>
  <use xlink:href="#a" width="976" height="1304" transform="translate(-32.039833 -8.666885)"/>
  <use xlink:href="#a" width="976" height="1304" transform="translate(-37.315725 -11.490927)"/>
  <use xlink:href="#a" width="976" height="1304" transform="translate(-3.3020407 -10.004485)"/>
  <use xlink:href="#a" width="976" height="1304" transform="translate(13.523823 -6.4209902)"/>
  <use xlink:href="#a" width="976" height="1304" transform="translate(13.430314 -6.6751159)"/>
  <use xlink:href="#a" width="976" height="1304" transform="translate(12.81034 -7.5316211)"/>
  <use xlink:href="#a" width="976" height="1304" transform="translate(7.0475514 -4.3562273)"/>
  <use xlink:href="#a" width="976" height="1304" transform="translate(12.249501 -6.5791324)"/>
  <path d="M459.0883 1112.1467c-.36314.0006-.71511.2151-.87995.539-.11345.2103-.12433.4551-.12032.6887.0193.3844.28233.7427.64456.8737.17068.064.3545.072.5332.098.29608 0 .59189-.021.88784-.03 1.24381-.051 2.48778-.1004 3.73146-.154.38706-.02.74606-.2889.87432-.6547.13904-.3669.0333-.8102-.25795-1.0735-.20163-.1933-.48602-.2834-.76252-.2693-1.55022-.01-3.10042-.015-4.65064-.017zm63.0649-2.9754c-.36685.065-.77734.027-1.06154.2874-.41854.3192-.49804 1.0394-.13999 1.4403.25434.2939.6475.4231.91565.7099.49223.4421 1.37831.2417 1.59046-.3957.2016-.4981-.0824-1.0275-.25756-1.4907-.17257-.3965-.6293-.6056-1.04702-.5512z"/>
  <path d="M565.59884 1101.9262c-2.11784.456-4.22135.975-6.34463 1.4142-10.26982 2.1753-20.64333 3.8467-31.0641 5.1381-1.64845.2116-3.30405.3789-4.951.5933-.62932.087-.9981.8115-.76333 1.386.65517 2.1104 1.31044 4.2284 1.98715 6.3336.17658.5242.76613.7306 1.27673.6504 1.56468-.06 3.13194-.1241 4.6917-.2536 10.95277-1.9349 21.91014-3.8494 32.84866-5.8597.99655-.1993 2.022-.3569 2.96817-.7421.4848-.235.56135-.8232.52041-1.306-.0129-2.0972.0291-4.1956-.0304-6.2921-.005-.604-.5217-1.1281-1.13938-1.0621z"/>
  <path d="M609.20329 1086.3284c-2.13476 1.0752-4.25251 2.1754-6.42452 3.1684-9.5857 4.439-19.6387 7.8067-29.81847 10.5468-2.16647.5913-4.34989 1.1206-6.52511 1.6749-.56473.1538-.82483.7962-.68305 1.3347.0584 2.1474.005 4.2995.0474 6.4456.0299.6582.79527 1.0931 1.3884.8306 5.46391-1.8436 10.85486-3.8941 16.25811-5.9066 9.74673-3.6501 19.45746-7.4151 29.22922-10.9846.48783-.2135 1.05781-.2771 1.47222-.6312.47907-.509.30746-1.2836.34972-1.9348-.007-1.2275.0194-2.458-.0132-3.6836-.0297-.5945-.64127-.993-1.20658-.9126-1.29429.014-2.59318-.028-3.88458.021-.0632.01-.12638.021-.18957.031z"/>
  <path d="M633.40513 1067.5722c-.60401.1357-.92362.7708-1.33315 1.1976-3.90651 4.5562-8.52505 8.4701-13.46499 11.8521-2.49998 1.7052-5.09622 3.2736-7.72261 4.7761-.54772.3263-.61641 1.1798-.12218 1.5845.46896.3989 1.13165.2164 1.69609.2745.34399.01.68821.011 1.03184.027.059 1.5347-.0207 3.0805.0704 4.6156.0814.5309.67445.9559 1.22363.8107.87964-.1956 1.69117-.6264 2.3604-1.2279 1.76615-1.5786 3.33141-3.365 4.80938-5.2116 4.23045-5.2277 8.08981-10.7323 11.90231-16.2715.27565-.4858.77694-.9286.72504-1.5312-.0362-.5828-.60896-.9966-1.17619-.896z"/>
  <path d="M634.17735 1066.642c-.25348.023-.49402.1465-.66432.3345-.14573.1577-.26813.3447-.3112.558-.0715.3236.0292.677.26172.9127.219.2272.54621.348.86022.3048.28192-.034.54269-.1982.70222-.4304.11678-.16.21285-.3402.23699-.5395.0477-.3242-.077-.667-.32156-.885-.20424-.1875-.48834-.2807-.76407-.2551z"/>
  <path fill="none" d="M634.85938 1066.7266c.0396.021.0391.081.0586.1211"/>
  <path d="M636.35974 1063.1315c-.29562.016-.57997.171-.75214.412-.13345.193-.25864.3928-.38835.5887-.39202.595-.79568 1.1822-1.21435 1.7585-.0776.1074-.15855.2148-.20538.3401-.10217.2567-.0902.5564.0315.8035.067.1377.16793.2578.26501.3762.18977.2144.4746.3398.76087.3344.30129 0 .59684-.151.77879-.3913.08-.1052.15507-.2144.23574-.319.1018-.098.17525-.2216.24354-.3452.39251-.6874.78673-1.3741 1.17255-2.0654.12034-.2141.16037-.4722.10571-.712-.0648-.2983-.27487-.5602-.55224-.6877-.14941-.07-.31646-.102-.48128-.093zm5.76145-14.3155c-.42937.1119-.70392.5116-.77242.9336-.62282 2.8641-1.55722 5.6672-2.76079 8.3427-.22022.4514-.0878 1.0499.34765 1.3209.45808.3152 1.13687.1443 1.41602-.3306.88692-1.5489 1.74047-3.1171 2.62788-4.6662.17367-.3059.34748-.6117.52252-.9168 1.83393 2.1269 3.65564 4.2663 5.52931 6.3586.31893.4075.94462.5579 1.38095.2522.49966-.303.59641-1.0457.22255-1.4858-1.0861-1.3698-2.20299-2.7147-3.28076-4.0912-1.35032-1.6959-2.66021-3.4233-3.98979-5.1353-.23669-.3426-.60888-.655-1.05022-.6073-.0643.01-.1286.017-.1929.025z"/>
  <path fill="none" d="m639.08984 1059.3281-.1875.3477m.78125-.1328.77344.1523m9.91797.0547 1.09375 1.4844"/>
  <path d="M186.15817 1038.1581c-124.105447 177.2279-62.05272 88.614 0 0zm45.189 18.2012c-.23513.037-.44963.1465-.62305.3066-1.83459.016-3.67066.01-5.50433.039-.58201.02-1.04096.6266-.90731 1.1924.0989.5209.6221.7609.98092 1.0873 3.95789 3.1971 8.16075 6.0934 12.55279 8.6602 1.40637.8075 2.83117 1.587 4.26542 2.3426.42718.1773.90477.067 1.3547.098 1.86578-.01 3.73984.014 5.60059-.013.59398.0003 1.09031-.6123.94698-1.1921-.0629-.453-.48461-.6984-.8546-.89-5.86664-3.307-11.53882-6.9889-16.78184-11.2275-.284-.2623-.62914-.4626-1.03027-.4033z"/>
  <path d="M249.73486 1068.6054c-.27455.06-.51628.2274-.67675.4541-1.56044.036-3.12744.01-4.6889.038-.58286.018-1.04095.6245-.91008 1.1906.0723.4247.44863.689.81999.8474 3.91008 2.0152 7.85638 3.9618 11.86132 5.7813 7.01669 3.2053 14.1798 6.0802 21.43134 8.7066.49437.1729 1.10383-.1055 1.26202-.6162.12916-.398.0617-.8408.0847-1.2578-.0165-.5504.0366-1.1054-.0332-1.6524-.10648-.41-.47649-.6686-.86659-.7787-8.52945-3.2788-16.91576-6.9372-24.99887-11.2185-.92091-.4734-1.81811-1.0054-2.75351-1.4537-.17552-.055-.34925-.066-.53142-.041z"/>
  <path d="M278.64893 1081.8036c-.4539.1496-.72556.6245-.69401 1.0907-.0237.7373-.0461 1.4748-.085 2.2098.0537.4711.45046.8115.88541.9397 12.69471 4.5282 25.68619 8.1882 38.80274 11.2725 3.45658.8058 6.92359 1.579 10.39497 2.3124.50405.1421 1.0966-.1448 1.23957-.6601.1068-.4042.0453-.8345.0638-1.25.0271-.4159-.0876-.8704-.45302-1.1137-.41471-.2432-.91406-.2692-1.36894-.4023-15.82565-3.7401-31.48579-8.2204-46.73468-13.873-.52621-.1792-1.03402-.4226-1.5723-.5594-.16307-.026-.31964-.01-.47859.033z"/>
  <path d="M328.99756 1096.6991c-.46496.1373-.75822.6143-.72284 1.0898.0151.5073-.10504 1.047.10175 1.5284.17928.3613.56602.5401.9471.592 12.84787 2.6791 25.7989 4.8288 38.78635 6.7092 3.26622.4705 6.53708.9268 9.80561 1.3636.52.059 1.01295-.3428 1.09961-.8338.0859-.4617.026-1.0249-.40317-1.3005-.37687-.2536-.86082-.205-1.28997-.2994-13.29806-1.9087-26.53378-4.2385-39.67016-7.0475-2.74046-.5895-5.47341-1.2038-8.20669-1.8219-.15319-.033-.29604-.01-.44759.02z"/>
  <path d="M379.07764 1105.8427c-.49327-.01-.94984.401-1.01172.8964-.10701.511.12411 1.1006.62695 1.3028.50098.1612 1.03834.1647 1.55528.253 3.71449.4928 7.43803.9429 11.15274 1.4254.88162.1179 1.7318.3973 2.6134.5242 2.46496.4113 4.97064.474 7.46471.487.57911-.012 1.17653.026 1.74459-.024.62567-.053 1.05274-.7943.78578-1.3625-.15343-.4276-.61957-.639-1.04916-.642-7.17989-.7337-14.34978-1.608-21.50091-2.5747-.79204-.098-1.58554-.2473-2.38166-.2857zm33.28335 3.7924c-.44927.067-.82112.4672-.84124.9228-.0405.4653.29323.9198.74359 1.0352.52554.1426 1.04583.3088 1.56054.4888.43409.1224.92611-.089 1.14258-.4829.166-.2853.33457-.6008.28263-.9398-.0452-.4332-.41013-.8128-.8449-.8747-.5329-.064-1.07362-.097-1.60991-.1444-.1446-.013-.28862-.026-.43329-.01z"/>
  <path d="M415.11978 1109.8665c-.44323.064-.809.4491-.85299.8941-.0544.4121.15619.8334.51412 1.0464.28739.1605.57685.324.88649.4378.38919.1176.85665.084 1.16266-.2077.34001-.3094.41735-.8579.17273-1.2479-.19119-.2889-.34742-.6409-.68542-.7853-.29829-.1398-.6386-.097-.95589-.1466-.0809-.01-.1611 0-.2417.01z"/>
  <path d="M417.03091 1110.0287c-.44927.067-.82112.4671-.84124.9228-.03.3063.12215.5875.29653.8273.18207.319.53291.5303.90212.5252 1.34527.034 2.69001.072 4.03075.1651.60925.037 1.22001.097 1.82861.1488.71408.021 1.42922.012 2.1435.011.49267 0 .93519-.4246.96334-.9166.0503-.4789-.30008-.9565-.77168-1.0539-.36416-.056-.73568-.059-1.10284-.093-2.41355-.1719-4.82818-.3576-7.24108-.5472-.0695-.01-.13865.01-.20801.011zm31.36434 1.7774c-.29541.01-.58432.1517-.7643.3865-.19264.2441-.25935.5809-.17453.88.0807.3003.31092.5551.60152.6657.1585.063.33077.076.49942.083.10135-.0003.20278-.0001.30401-.01.30338-.025.58991-.1976.75321-.4545.16582-.2538.20527-.5845.10395-.8703-.0987-.2888-.33745-.5249-.62766-.6196-.17341-.062-.35988-.053-.54071-.062h-.15491z"/>
  <path stroke="#000" d="M237.13682 1040.8576c84.97845 100.9509 370.8476 75.0501 404.71673 7.5869l14.51561 18.137 10.94334 11.606L609.5 1122l-145 25-130-20.5-113-27.5-7-41c7.49821-5.7813 16.45186-15.516 22.63682-17.1424z"/>
  <path fill="#666" d="M292.74221 665.48258c-12.48399 85.62803 100.54905 234.74835 31.19805 93.99671-14.88659-30.3408-21.61164-59.51785-31.19805-93.99671z"/>
  <path fill="#333" d="M248.25737 709.09383c4.91566 4.23765 3.4465 8.72408 12.60054 16.08579l-8.46615-3.74085c-6.45504-2.06572-12.61517-18.8377-4.13439-12.34494zM588.9081 553.29146c9.11266 13.45438 5.1914 15.28055-3.5071 25.21319 1.89533-4.60784 8.35085-11.66364 3.5071-25.21319z"/>
  <path fill="#ccc" d="M621.54351 550.41288c41.37169 20.76399 28.41138-11.43557 5.49786-18.11282-57.53432-14.00182-28.43537 6.43793-5.49786 18.11282zm63.36426 148.71846c3.70544 10.1598 3.19795 37.36835-2.33404 49.90887-1.82742 14.42928 1.61227 23.14986-12.83614 26.17049-20.08422 4.66467-5.37753-13.10556-5.66252-26.43858-1.60515-16.20211 1.31937-30.8635 5.09383-46.3807 1.73721-7.5595 13.51437-15.39565 15.73887-3.26008z"/>
  <path fill="#666" d="M669.02397 725.66544c-1.7142 14.85637 4.16243 6.46447 13.21089.80918 10.91225-22.85919-10.46085-4.21501-13.21089-.80918z"/>
  <path fill="#333" d="M392.17937 551.98322c9.11266 13.45438 5.1914 15.28055-3.5071 25.21319 1.89533-4.60784 8.35085-11.66364 3.5071-25.21319z"/>
</svg>