<svg width="100" height="100" viewBox="0 0 100 100" fill="none" xmlns="http://www.w3.org/2000/svg">
<path d="M0 20C0 8.9543 8.95431 0 20 0H80C91.0457 0 100 8.95431 100 20V80C100 91.0457 91.0457 100 80 100H20C8.9543 100 0 91.0457 0 80V20Z" fill="black"/>
<path d="M0 20C0 8.9543 8.95431 0 20 0H80C91.0457 0 100 8.95431 100 20V80C100 91.0457 91.0457 100 80 100H20C8.9543 100 0 91.0457 0 80V20Z" fill="url(#paint0_radial_6_100)"/>
<path d="M16.2588 53.388C16.2428 53.62 16.1188 53.78 15.8868 53.868C15.6628 53.956 15.2548 54 14.6628 54C14.0708 54 13.5748 53.948 13.1748 53.844C12.7828 53.732 12.5868 53.592 12.5868 53.424C12.5868 53.232 12.9428 52.008 13.6548 49.752C14.3668 47.488 14.7748 46.184 14.8788 45.84C14.9188 45.736 15.2388 45.652 15.8388 45.588C16.4468 45.516 17.0948 45.48 17.7828 45.48C18.4788 45.48 18.8628 45.6 18.9348 45.84C20.4468 50.864 21.2028 53.416 21.2028 53.496C21.2028 53.576 21.1548 53.656 21.0588 53.736C20.8348 53.912 20.3908 54 19.7268 54C18.3108 54 17.5868 53.832 17.5548 53.496L17.4708 52.716H16.3188L16.2588 53.388ZM17.2188 50.436L17.0388 48.276H16.7748L16.5708 50.436H17.2188ZM23.6542 54C23.4542 54 23.1622 54 22.7782 54C22.4022 54 22.1462 53.972 22.0102 53.916C21.8742 53.86 21.8062 53.772 21.8062 53.652V46.08C21.8062 45.896 22.0502 45.752 22.5382 45.648C23.0342 45.536 23.5622 45.48 24.1222 45.48C24.6822 45.48 25.0822 45.552 25.3222 45.696C25.5622 45.84 25.7022 45.992 25.7422 46.152L26.5582 49.32H26.6662L27.4342 46.296C27.4902 46.08 27.7502 45.892 28.2142 45.732C28.6862 45.564 29.2022 45.48 29.7622 45.48C30.3222 45.48 30.7342 45.524 30.9982 45.612C31.2702 45.7 31.4062 45.812 31.4062 45.948V53.652C31.4062 53.756 31.1782 53.84 30.7222 53.904C30.2662 53.968 29.7102 54 29.0542 54C28.3982 54 28.0702 53.884 28.0702 53.652C28.0702 53.02 28.1382 51.896 28.2742 50.28H28.1662L27.5422 53.412C27.5182 53.532 27.4182 53.62 27.2422 53.676C27.0742 53.732 26.8182 53.76 26.4742 53.76C26.1302 53.76 25.9182 53.736 25.8382 53.688C25.7662 53.64 25.7182 53.548 25.6942 53.412L25.0462 50.28H24.9382C25.0822 51.928 25.1542 53.052 25.1542 53.652C25.1542 53.86 24.6542 53.976 23.6542 54ZM36.4208 54.108C35.7568 54.108 35.1848 54.048 34.7048 53.928C34.2328 53.8 33.7968 53.576 33.3968 53.256C32.5888 52.624 32.1848 51.412 32.1848 49.62C32.1848 48.868 32.2928 48.212 32.5088 47.652C32.7328 47.092 33.0408 46.648 33.4328 46.32C34.2008 45.68 35.1968 45.36 36.4208 45.36C37.0528 45.36 37.6008 45.416 38.0648 45.528C38.5368 45.64 38.9808 45.844 39.3968 46.14C40.2368 46.748 40.6568 47.908 40.6568 49.62C40.6568 51.156 40.2768 52.288 39.5168 53.016C38.7568 53.744 37.7248 54.108 36.4208 54.108ZM36.0248 52.056C36.1208 52.168 36.2528 52.224 36.4208 52.224C36.5888 52.224 36.7208 52.168 36.8168 52.056C36.9128 51.936 36.9928 51.688 37.0568 51.312C37.1208 50.928 37.1528 50.396 37.1528 49.716C37.1528 49.036 37.1208 48.512 37.0568 48.144C36.9928 47.776 36.9128 47.536 36.8168 47.424C36.7208 47.312 36.5888 47.256 36.4208 47.256C36.2528 47.256 36.1208 47.312 36.0248 47.424C35.9288 47.536 35.8488 47.776 35.7848 48.144C35.7208 48.512 35.6888 49.036 35.6888 49.716C35.6888 50.396 35.7208 50.928 35.7848 51.312C35.8488 51.688 35.9288 51.936 36.0248 52.056ZM49.1871 50.652C49.1871 51.804 48.8551 52.668 48.1911 53.244C47.5351 53.812 46.5791 54.096 45.3231 54.096C44.0751 54.096 43.1151 53.812 42.4431 53.244C41.7711 52.668 41.4351 51.804 41.4351 50.652V46.248C41.4351 46.048 41.6591 45.868 42.1071 45.708C42.5631 45.548 43.0911 45.468 43.6911 45.468C44.1711 45.468 44.4831 45.56 44.6271 45.744C44.7311 45.888 44.7831 46.012 44.7831 46.116V49.692C44.7831 50.596 44.8151 51.196 44.8791 51.492C44.9511 51.78 45.0991 51.924 45.3231 51.924C45.5471 51.924 45.6871 51.784 45.7431 51.504C45.8071 51.216 45.8391 50.608 45.8391 49.68V46.248C45.8391 46.048 46.0631 45.868 46.5111 45.708C46.9671 45.548 47.4911 45.468 48.0831 45.468C48.5871 45.468 48.9071 45.56 49.0431 45.744C49.1391 45.888 49.1871 46.012 49.1871 46.116V50.652ZM53.5021 53.652C53.5021 53.756 53.2581 53.84 52.7701 53.904C52.2821 53.968 51.7901 54 51.2941 54C50.8061 54 50.4901 53.972 50.3461 53.916C50.2101 53.86 50.1421 53.772 50.1421 53.652V45.936C50.1421 45.728 50.4021 45.58 50.9221 45.492C51.4501 45.404 52.1141 45.36 52.9141 45.36C53.7141 45.36 54.2301 45.364 54.4621 45.372C54.7021 45.372 54.9821 45.384 55.3021 45.408C55.6221 45.432 55.8741 45.472 56.0581 45.528C56.2501 45.584 56.4581 45.656 56.6821 45.744C56.9141 45.832 57.0941 45.948 57.2221 46.092C57.3501 46.228 57.4741 46.392 57.5941 46.584C57.8101 46.928 57.9181 47.42 57.9181 48.06C57.9181 48.692 57.8101 49.228 57.5941 49.668C57.3861 50.1 57.1061 50.428 56.7541 50.652C57.6741 52.1 58.1341 53.02 58.1341 53.412C58.1341 53.804 57.3461 54 55.7701 54C55.3141 54 54.9981 53.98 54.8221 53.94C54.6461 53.9 54.5341 53.812 54.4861 53.676L53.7061 51.204L53.5021 51.192V53.652ZM53.5021 49.344H53.8141C54.2781 49.344 54.5101 48.984 54.5101 48.264C54.5101 47.896 54.4461 47.636 54.3181 47.484C54.1981 47.332 54.0581 47.256 53.8981 47.256H53.5021V49.344ZM64.816 54H59.728C59.336 54 59.072 53.972 58.936 53.916C58.8 53.86 58.732 53.772 58.732 53.652V46.056C58.732 45.848 58.824 45.7 59.008 45.612C59.2 45.524 59.54 45.48 60.028 45.48H64.852C65.02 45.48 65.104 45.76 65.104 46.32C65.104 46.872 65.068 47.296 64.996 47.592C64.924 47.88 64.828 48.024 64.708 48.024C64.188 48.024 63.312 47.972 62.08 47.868V48.672C63.264 48.624 64.036 48.6 64.396 48.6C64.612 48.6 64.72 48.852 64.72 49.356C64.72 49.86 64.676 50.244 64.588 50.508C64.508 50.764 64.396 50.892 64.252 50.892L62.08 50.844V51.612C63.472 51.508 64.432 51.456 64.96 51.456C65.128 51.456 65.212 51.736 65.212 52.296C65.212 52.856 65.176 53.28 65.104 53.568C65.032 53.856 64.936 54 64.816 54ZM71.1562 53.712C71.1562 53.8 70.9082 53.872 70.4122 53.928C69.9242 53.976 69.4322 54 68.9362 54C68.4482 54 68.1362 53.98 68.0002 53.94C67.8722 53.892 67.8082 53.816 67.8082 53.712V48.552H66.1402C66.0522 48.552 65.9762 48.44 65.9122 48.216C65.8482 47.992 65.8162 47.66 65.8162 47.22C65.8162 46.772 65.8642 46.372 65.9602 46.02C66.0562 45.66 66.1842 45.48 66.3442 45.48H72.8362C72.9562 45.48 73.0362 45.592 73.0762 45.816C73.1242 46.04 73.1482 46.364 73.1482 46.788C73.1482 47.212 73.1042 47.612 73.0162 47.988C72.9282 48.364 72.8082 48.552 72.6562 48.552H71.1562V53.712ZM78.9726 53.712C78.9726 53.8 78.7246 53.872 78.2286 53.928C77.7406 53.976 77.2486 54 76.7526 54C76.2646 54 75.9526 53.98 75.8166 53.94C75.6886 53.892 75.6246 53.816 75.6246 53.712V48.552H73.9566C73.8686 48.552 73.7926 48.44 73.7286 48.216C73.6646 47.992 73.6326 47.66 73.6326 47.22C73.6326 46.772 73.6806 46.372 73.7766 46.02C73.8726 45.66 74.0006 45.48 74.1606 45.48H80.6526C80.7726 45.48 80.8526 45.592 80.8926 45.816C80.9406 46.04 80.9646 46.364 80.9646 46.788C80.9646 47.212 80.9206 47.612 80.8326 47.988C80.7446 48.364 80.6246 48.552 80.4726 48.552H78.9726V53.712ZM87.773 54H82.685C82.293 54 82.029 53.972 81.893 53.916C81.757 53.86 81.689 53.772 81.689 53.652V46.056C81.689 45.848 81.781 45.7 81.965 45.612C82.157 45.524 82.497 45.48 82.985 45.48H87.809C87.977 45.48 88.061 45.76 88.061 46.32C88.061 46.872 88.025 47.296 87.953 47.592C87.881 47.88 87.785 48.024 87.665 48.024C87.145 48.024 86.269 47.972 85.037 47.868V48.672C86.221 48.624 86.993 48.6 87.353 48.6C87.569 48.6 87.677 48.852 87.677 49.356C87.677 49.86 87.633 50.244 87.545 50.508C87.465 50.764 87.353 50.892 87.209 50.892L85.037 50.844V51.612C86.429 51.508 87.389 51.456 87.917 51.456C88.085 51.456 88.169 51.736 88.169 52.296C88.169 52.856 88.133 53.28 88.061 53.568C87.989 53.856 87.893 54 87.773 54Z" fill="white"/>
<path fill-rule="evenodd" clip-rule="evenodd" d="M16.893 43.9993L16.8932 43.9996L16.8936 44L16.9157 43.9772L18.5182 42.3804L18.4937 42.3503L18.6478 42.1915C19.0928 41.7327 19.1197 40.9646 18.7081 40.4757C18.2964 39.9869 17.602 39.9625 17.157 40.4212L17.0301 40.5521L16.9008 40.3932C16.5009 39.9019 15.813 39.8661 15.3643 40.3133C14.9155 40.7604 14.8759 41.5211 15.2758 42.0124L15.4299 42.2018L15.4028 42.2298L16.893 43.9993Z" fill="white"/>
<defs>
<radialGradient id="paint0_radial_6_100" cx="0" cy="0" r="1" gradientUnits="userSpaceOnUse" gradientTransform="translate(50 50) rotate(44.7582) scale(70.4142)">
<stop offset="0.235876" stop-color="#FF0101"/>
<stop offset="1" stop-color="#FFAF01"/>
</radialGradient>
</defs>
</svg>
