<svg width="100" height="100" viewBox="0 0 100 100" fill="none" xmlns="http://www.w3.org/2000/svg">
<path d="M0 20C0 8.9543 8.95431 0 20 0H80C91.0457 0 100 8.95431 100 20V80C100 91.0457 91.0457 100 80 100H20C8.9543 100 0 91.0457 0 80V20Z" fill="black"/>
<path d="M0 20C0 8.9543 8.95431 0 20 0H80C91.0457 0 100 8.95431 100 20V80C100 91.0457 91.0457 100 80 100H20C8.9543 100 0 91.0457 0 80V20Z" fill="url(#paint0_radial_18_2)"/>
<path d="M47.688 64.632C47.624 65.56 47.128 66.2 46.2 66.552C45.304 66.904 43.672 67.08 41.304 67.08C38.936 67.08 36.952 66.872 35.352 66.456C33.784 66.008 33 65.448 33 64.776C33 64.008 34.424 59.112 37.272 50.088C40.12 41.032 41.752 35.816 42.168 34.44C42.328 34.024 43.608 33.688 46.008 33.432C48.44 33.144 51.032 33 53.784 33C56.568 33 58.104 33.48 58.392 34.44C64.44 54.536 67.464 64.744 67.464 65.064C67.464 65.384 67.272 65.704 66.888 66.024C65.992 66.728 64.216 67.08 61.56 67.08C55.896 67.08 53 66.408 52.872 65.064L52.536 61.944H47.928L47.688 64.632ZM51.528 52.824L50.808 44.184H49.752L48.936 52.824H51.528Z" fill="white"/>
<path fill-rule="evenodd" clip-rule="evenodd" d="M59.6458 34.2374L59.6461 34.2384L59.6461 34.2383L59.6464 34.2393L59.7062 34.2225L64.0316 33.0837L64.0076 33.0122L64.4534 32.8868C65.6518 32.5496 66.285 31.3254 65.8676 30.1526C65.4502 28.9797 64.1404 28.3022 62.942 28.6394L62.5702 28.744L62.4558 28.4045C62.0561 27.2177 60.7504 26.514 59.5393 26.8329C58.3283 27.1517 57.6706 28.3723 58.0703 29.5591L58.209 29.9711L58.135 29.992L59.6458 34.2374Z" fill="white"/>
<path fill-rule="evenodd" clip-rule="evenodd" d="M65.2224 27.637L65.2225 27.6373L65.2226 27.638L65.2608 27.625L68.0338 26.7321L68.0218 26.6837L68.2945 26.5908C69.0712 26.326 69.5299 25.4685 69.3192 24.6755C69.1084 23.8825 68.308 23.4543 67.5313 23.719L67.3062 23.7958L67.2441 23.5455C67.0479 22.7538 66.2596 22.3147 65.4832 22.5647C64.7069 22.8147 64.2366 23.6591 64.4328 24.4507L64.507 24.7501L64.4595 24.7663L65.2224 27.637Z" fill="white"/>
<defs>
<radialGradient id="paint0_radial_18_2" cx="0" cy="0" r="1" gradientUnits="userSpaceOnUse" gradientTransform="translate(50 50) rotate(44.7582) scale(70.4142)">
<stop offset="0.235876" stop-color="#FF0101"/>
<stop offset="1" stop-color="#FFAF01"/>
</radialGradient>
</defs>
</svg>
